<svg xmlns="http://www.w3.org/2000/svg" xmlns:xlink="http://www.w3.org/1999/xlink" width="48" height="48" viewBox="0 0 48 48" fill="none">
  <rect width="48" height="48" fill="url(#pattern0_224_1563)"/>
  <defs>
    <pattern id="pattern0_224_1563" patternUnits="userSpaceOnUse" patternTransform="matrix(47.5756 0 0 48 0.21221 0)" preserveAspectRatio="none" viewBox="0 0 47.5756 48" width="1" height="1">
      <g id="pattern0_224_1563_inner">
        <path d="M24.3707 36C17.5385 36 12 30.4615 12 23.6294C12 18.2822 15.3926 13.7273 20.1428 12C18.904 13.9269 18.1853 16.2201 18.1853 18.6811C18.1853 25.5132 23.7239 31.0517 30.556 31.0517C32.0409 31.0517 33.4647 30.7901 34.7838 30.3104C32.5834 33.7329 28.7418 36 24.3707 36Z" fill="black"/>
        <path d="M28.1532 12.4278V18.6132H34.3386C28.1532 18.6132 28.1532 12.4278 28.1532 12.4278Z" fill="black"/>
        <path d="M28.1532 18.6132V25.417C28.1532 25.417 28.1532 18.6132 34.3386 18.6132H28.1532Z" fill="black"/>
        <path d="M28.1532 25.417V18.6132H21.9679C21.9679 18.6132 28.1532 18.6132 28.1532 25.417Z" fill="black"/>
        <path d="M28.1532 18.6132V12.4278C28.1532 18.6132 21.9679 18.6132 21.9679 18.6132H28.1532Z" fill="black"/>
        <path d="M33.0188 20.8119V23.0158H35.4102C33.0188 23.0158 33.0188 20.8119 33.0188 20.8119Z" fill="black"/>
        <path d="M33.0188 23.0158V25.44C33.0188 25.44 33.0188 23.0158 35.4102 23.0158H33.0188Z" fill="black"/>
        <path d="M33.0188 25.44V23.0158H30.6273C30.6273 23.0158 33.0188 23.0158 33.0188 25.44Z" fill="black"/>
        <path d="M33.0188 23.0158V20.8119C33.0188 23.0158 30.6273 23.0158 30.6273 23.0158H33.0188Z" fill="black"/>
        <path d="M33.0188 12.8644V15.0683H35.4102C33.0188 15.0683 33.0188 12.8644 33.0188 12.8644Z" fill="black"/>
        <path d="M33.0188 15.0683V17.4926C33.0188 17.4926 33.0188 15.0683 35.4102 15.0683H33.0188Z" fill="black"/>
        <path d="M33.0188 17.4926V15.0683H30.6273C30.6273 15.0683 33.0188 15.0683 33.0188 17.4926Z" fill="black"/>
        <path d="M33.0188 15.0683V12.8644C33.0188 15.0683 30.6273 15.0683 30.6273 15.0683H33.0188Z" fill="black"/>
      </g>
    </pattern></defs>
  </svg>